<?xml version="1.0" encoding="UTF-8" standalone="no"?>
<!DOCTYPE svg PUBLIC "-//W3C//DTD SVG 1.1//EN" "http://www.w3.org/Graphics/SVG/1.1/DTD/svg11.dtd">
<svg width="456" height="456" viewBox="0 0 456 456" version="1.1" xmlns="http://www.w3.org/2000/svg" fill="none" stroke-linecap="square" stroke-miterlimit="10">
	<clipPath id="a">
		<path d="M0 0h456v456H0V0z"/>
	</clipPath>
	<g clip-path="url(#a)">
		<path d="M0 0h456v456H0z"/>
		<path fill="#666" fill-rule="evenodd" d="M128 175h16v106h-16z"/>
		<path stroke="#fff" stroke-linecap="butt" stroke-linejoin="round" stroke-width="2" d="M128 175h16v106h-16z"/>
		<path fill="#666" fill-rule="evenodd" d="M312 175h15v103h-15z"/>
		<path stroke="#fff" stroke-linecap="butt" stroke-linejoin="round" stroke-width="2" d="M312 175h15v103h-15z"/>
		<path fill="#fd0" fill-rule="evenodd" d="m208 210 20 18v1l-25-11z"/>
		<path stroke="#fd0" stroke-linecap="butt" stroke-linejoin="round" d="m208 210 20 18v1l-25-11z"/>
		<path fill="#fd0" fill-rule="evenodd" d="M211 244c-9 11-25 15-39 11-15-4-25-15-24-28 0-12 11-23 26-27 14-3 30 2 38 13l-10 5c-5-6-16-9-26-7s-17 9-17 17c-1 7 6 14 15 17 10 3 21 0 27-6z"/>
		<path stroke="#fd0" stroke-linecap="butt" stroke-linejoin="round" d="M211 244c-9 11-25 15-39 11-15-4-25-15-24-28 0-12 11-23 26-27 14-3 30 2 38 13l-10 5c-5-6-16-9-26-7s-17 9-17 17c-1 7 6 14 15 17 10 3 21 0 27-6z"/>
		<path fill="#fd0" fill-rule="evenodd" d="M245 244c9 11 25 15 39 11 15-4 25-15 24-28 0-12-11-23-26-27-15-3-30 2-38 13l10 5c5-6 16-9 26-7s17 9 17 17c1 7-6 14-15 17-10 3-21 0-28-6z"/>
		<path stroke="#fd0" stroke-linecap="butt" stroke-linejoin="round" d="M245 244c9 11 25 15 39 11 15-4 25-15 24-28 0-12-11-23-26-27-15-3-30 2-38 13l10 5c5-6 16-9 26-7s17 9 17 17c1 7-6 14-15 17-10 3-21 0-28-6z"/>
		<path fill="#fd0" fill-rule="evenodd" d="m206 248 25-22-30 14z"/>
		<path stroke="#fd0" stroke-linecap="butt" stroke-linejoin="round" d="m206 248 25-22-30 14z"/>
		<path fill="#fd0" fill-rule="evenodd" d="m248 210-20 18v1l26-11z"/>
		<path stroke="#fd0" stroke-linecap="butt" stroke-linejoin="round" d="m248 210-20 18v1l26-11z"/>
		<path fill="#fd0" fill-rule="evenodd" d="m250 248-25-22 30 14z"/>
		<path stroke="#fd0" stroke-linecap="butt" stroke-linejoin="round" d="m250 248-25-22 30 14z"/>
		<path d="M147 185c17-3 35-1 49 6 15 6 24 17 26 28l-60 4z"/>
		<path d="M147 185c17-3 35-1 49 6 15 6 24 17 26 28"/>
		<path stroke="#fff" stroke-linecap="butt" stroke-linejoin="round" stroke-width="2" d="M147 185c17-3 35-1 49 6 15 6 24 17 26 28"/>
		<path d="M148 271c16 3 34 1 49-5 14-7 23-17 25-28l-60-5z"/>
		<path d="M148 271c16 3 34 1 49-5 14-7 23-17 25-28"/>
		<path stroke="#fff" stroke-linecap="butt" stroke-linejoin="round" stroke-width="2" d="M148 271c16 3 34 1 49-5 14-7 23-17 25-28"/>
		<path d="M309 185c-17-3-35-1-49 6-15 6-24 17-26 28l60 4z"/>
		<path d="M309 185c-17-3-35-1-49 6-15 6-24 17-26 28"/>
		<path stroke="#fff" stroke-linecap="butt" stroke-linejoin="round" stroke-width="2" d="M309 185c-17-3-35-1-49 6-15 6-24 17-26 28"/>
		<path d="M308 271c-16 3-34 1-49-5-14-7-23-17-25-28l60-5z"/>
		<path d="M308 271c-16 3-34 1-49-5-14-7-23-17-25-28"/>
		<path stroke="#fff" stroke-linecap="butt" stroke-linejoin="round" stroke-width="2" d="M308 271c-16 3-34 1-49-5-14-7-23-17-25-28"/>
		<path d="M234 219c0 2-1 4-3 5h-6c-2-1-3-3-3-5h6z"/>
		<path d="M234 219c0 2-1 4-3 5h-6c-2-1-3-3-3-5"/>
		<path stroke="#fff" stroke-linecap="butt" stroke-linejoin="round" stroke-width="2" d="M234 219c0 2-1 4-3 5h-6c-2-1-3-3-3-5"/>
		<path fill="#595959" fill-rule="evenodd" d="m144 182 3 3v86l-3 3z"/>
		<path stroke="#fff" stroke-linecap="butt" stroke-linejoin="round" stroke-width="2" d="m144 182 3 3v86l-3 3z"/>
		<path fill="#595959" fill-rule="evenodd" d="m312 182-3 3v86l3 3z"/>
		<path stroke="#fff" stroke-linecap="butt" stroke-linejoin="round" stroke-width="2" d="m312 182-3 3v86l3 3z"/>
		<path d="M234 238c0-2-1-4-3-5-2-2-4-2-6 0-2 1-3 3-3 5h6z"/>
		<path d="M234 238c0-2-1-4-3-5-2-2-4-2-6 0-2 1-3 3-3 5"/>
		<path stroke="#fff" stroke-linecap="butt" stroke-linejoin="round" stroke-width="2" d="M234 238c0-2-1-4-3-5-2-2-4-2-6 0-2 1-3 3-3 5"/>
		<path fill="#fd0" fill-rule="evenodd" d="M261 207c-5 13-19 22-34 22-16-1-29-10-32-24l3-1c3 13 15 21 29 22 14 0 26-8 31-20z"/>
		<path stroke="#fd0" stroke-linecap="butt" stroke-linejoin="round" d="M261 207c-5 13-19 22-34 22-16-1-29-10-32-24l3-1c3 13 15 21 29 22 14 0 26-8 31-20z"/>
		<path fill="#fd0" fill-rule="evenodd" d="M261 249c-5-13-19-22-34-22-16 0-29 10-32 24l3 1c3-13 15-21 29-22 14 0 26 8 31 20z"/>
		<path stroke="#fd0" stroke-linecap="butt" stroke-linejoin="round" d="M261 249c-5-13-19-22-34-22-16 0-29 10-32 24l3 1c3-13 15-21 29-22 14 0 26 8 31 20z"/>
	</g>
</svg>
