<svg xmlns="http://www.w3.org/2000/svg" fill="none" stroke-linecap="square" stroke-miterlimit="10" viewBox="0 0 456 256">
  <clipPath id="a">
    <path d="M0 0h456v456H0V0z"/>
  </clipPath>
  <g clip-path="url(#a)">
    <path d="M0 0h456v456H0z"/>
    <path fill="#666" fill-rule="evenodd" d="M48 16.9h28.4V234H47.9z"/>
    <path stroke="#FFF" stroke-linecap="butt" stroke-linejoin="round" stroke-width="3" d="M48 16.9h28.4V234H47.9z"/>
    <path fill="#666" fill-rule="evenodd" d="M379.7 16.7h27.7v210.9h-27.7z"/>
    <path stroke="#FFF" stroke-linecap="butt" stroke-linejoin="round" stroke-width="3" d="M379.7 16.7h27.7v210.9h-27.7z"/>
    <path fill="#fd0" fill-rule="evenodd" d="m191.8 87.5 36.6 38.1-1 1.6-46.2-21.8z"/>
    <path stroke="#fd0" stroke-linecap="butt" stroke-linejoin="round" d="m191.8 87.5 36.6 38.1-1 1.6-46.2-21.8z"/>
    <path fill="#fd0" fill-rule="evenodd" d="M199.3 156a64.9 64.9 0 0 1-71.4 25.6 59.2 59.2 0 0 1-45-57.8 59.7 59.7 0 0 1 48.4-55.4A64.3 64.3 0 0 1 201 97.7l-19.8 10A42.5 42.5 0 0 0 136 90c-17.7 4-30.4 18-30.9 34.4s11.2 31.1 28.7 36A43 43 0 0 0 180 145z"/>
    <path stroke="#fd0" stroke-linecap="butt" stroke-linejoin="round" d="M199.3 156a64.9 64.9 0 0 1-71.4 25.6 59.2 59.2 0 0 1-45-57.8 59.7 59.7 0 0 1 48.4-55.4A64.3 64.3 0 0 1 201 97.7l-19.8 10A42.5 42.5 0 0 0 136 90c-17.7 4-30.4 18-30.9 34.4s11.2 31.1 28.7 36A43 43 0 0 0 180 145z"/>
    <path fill="#fd0" fill-rule="evenodd" d="M256.7 156a64.9 64.9 0 0 0 71.4 25.6 59.2 59.2 0 0 0 45-57.8 59.7 59.7 0 0 0-48.4-55.4A64.5 64.5 0 0 0 255 97.7l19.9 10a42.5 42.5 0 0 1 45-17.7c17.8 4 30.5 18 31 34.4s-11.3 31.1-28.8 36A43 43 0 0 1 276 145z"/>
    <path stroke="#fd0" stroke-linecap="butt" stroke-linejoin="round" d="M256.7 156a64.9 64.9 0 0 0 71.4 25.6 59.2 59.2 0 0 0 45-57.8 59.7 59.7 0 0 0-48.4-55.4A64.5 64.5 0 0 0 255 97.7l19.9 10a42.5 42.5 0 0 1 45-17.7c17.8 4 30.5 18 31 34.4s-11.3 31.1-28.8 36A43 43 0 0 1 276 145z"/>
    <path fill="#fd0" fill-rule="evenodd" d="m189.7 165.7 43.9-44.2v-.2L179 147.8z"/>
    <path stroke="#fd0" stroke-linecap="butt" stroke-linejoin="round" d="m189.7 165.7 43.9-44.2v-.2L179 147.8z"/>
    <path fill="#fd0" fill-rule="evenodd" d="m264.5 87.5-36.7 38 1 1.8 46.3-22z"/>
    <path stroke="#fd0" stroke-linecap="butt" stroke-linejoin="round" d="m264.5 87.5-36.7 38 1 1.8 46.3-22z"/>
    <path fill="#fd0" fill-rule="evenodd" d="m266.4 165.7-43.8-44.2v-.2l54.4 26.5z"/>
    <path stroke="#fd0" stroke-linecap="butt" stroke-linejoin="round" d="m266.4 165.7-43.8-44.2v-.2l54.4 26.5z"/>
    <path d="M78.9 38c31-6.5 64.2-2.5 90.8 10.9 26.6 13.4 43.7 34.8 46.8 58.4l-108 7.7z"/>
    <path d="M78.9 38c31-6.5 64.2-2.5 90.8 10.9 26.6 13.4 43.7 34.8 46.8 58.4"/>
    <path stroke="#FFF" stroke-linecap="butt" stroke-linejoin="round" stroke-width="3" d="M78.9 38c31-6.5 64.2-2.5 90.8 10.9 26.6 13.4 43.7 34.8 46.8 58.4"/>
    <path d="M79.3 213.3c30.9 6.4 64 2.4 90.5-11s43.6-34.8 46.7-58.4l-108-7.7z"/>
    <path d="M79.3 213.3c30.9 6.4 64 2.4 90.5-11s43.6-34.8 46.7-58.4"/>
    <path stroke="#FFF" stroke-linecap="butt" stroke-linejoin="round" stroke-width="3" d="M79.3 213.3c30.9 6.4 64 2.4 90.5-11s43.6-34.8 46.7-58.4"/>
    <path d="M377.1 38c-31-6.5-64.2-2.5-90.8 10.9-26.6 13.4-43.7 34.8-46.8 58.4l108 7.7z"/>
    <path d="M377.1 38c-31-6.5-64.2-2.5-90.8 10.9-26.6 13.4-43.7 34.8-46.8 58.4"/>
    <path stroke="#FFF" stroke-linecap="butt" stroke-linejoin="round" stroke-width="3" d="M377.1 38c-31-6.5-64.2-2.5-90.8 10.9-26.6 13.4-43.7 34.8-46.8 58.4"/>
    <path d="M376.7 213.3c-30.9 6.4-64 2.4-90.5-11s-43.6-34.8-46.7-58.4l108-7.7z"/>
    <path d="M376.7 213.3c-30.9 6.4-64 2.4-90.5-11s-43.6-34.8-46.7-58.4"/>
    <path stroke="#FFF" stroke-linecap="butt" stroke-linejoin="round" stroke-width="3" d="M376.7 213.3c-30.9 6.4-64 2.4-90.5-11s-43.6-34.8-46.7-58.4"/>
    <path d="M239.4 105.9a13 13 0 0 1-5.7 11 10.3 10.3 0 0 1-11.4 0 13.1 13.1 0 0 1-5.6-11H228z"/>
    <path d="M239.4 105.9a13 13 0 0 1-5.7 11 10.3 10.3 0 0 1-11.4 0 13.1 13.1 0 0 1-5.6-11"/>
    <path stroke="#FFF" stroke-linecap="butt" stroke-linejoin="round" stroke-width="3" d="M239.4 105.9a13 13 0 0 1-5.7 11 10.3 10.3 0 0 1-11.4 0 13.1 13.1 0 0 1-5.6-11"/>
    <path fill="#666" fill-rule="evenodd" d="m76.4 31 5.7 5v178.5l-5.7 5z"/>
    <path stroke="#FFF" stroke-linecap="butt" stroke-linejoin="round" stroke-width="3" d="m76.4 31 5.7 5v178.5l-5.7 5z"/>
    <path fill="#595959" fill-rule="evenodd" d="m379.6 31-5.7 5v178.5l5.7 5z"/>
    <path stroke="#FFF" stroke-linecap="butt" stroke-linejoin="round" stroke-width="3" d="m379.6 31-5.7 5v178.5l5.7 5z"/>
    <path d="M239.4 145.3c0-4.5-2.2-8.7-5.7-11a10.3 10.3 0 0 0-11.4 0 13.1 13.1 0 0 0-5.6 11H228z"/>
    <path d="M239.4 145.3c0-4.5-2.2-8.7-5.7-11a10.3 10.3 0 0 0-11.4 0 13.1 13.1 0 0 0-5.6 11"/>
    <path stroke="#FFF" stroke-linecap="butt" stroke-linejoin="round" stroke-width="3" d="M239.4 145.3c0-4.5-2.2-8.7-5.7-11a10.3 10.3 0 0 0-11.4 0 13.1 13.1 0 0 0-5.6 11"/>
    <path fill="#fd0" fill-rule="evenodd" d="M287.6 82.5a62 62 0 0 1-61.4 46.8A62.3 62.3 0 0 1 167.5 79l6.3-1.4a56 56 0 0 0 52.6 45.5 55.7 55.7 0 0 0 55-42.3z"/>
    <path stroke="#fd0" stroke-linecap="butt" stroke-linejoin="round" d="M287.6 82.5a62 62 0 0 1-61.4 46.8A62.3 62.3 0 0 1 167.5 79l6.3-1.4a56 56 0 0 0 52.6 45.5 55.7 55.7 0 0 0 55-42.3z"/>
    <path fill="#fd0" fill-rule="evenodd" d="M287.6 170a62 62 0 0 0-61.4-46.9 62.3 62.3 0 0 0-58.7 50.5l6.3 1.3a56 56 0 0 1 52.6-45.4 55.7 55.7 0 0 1 55 42.2z"/>
    <path stroke="#fd0" stroke-linecap="butt" stroke-linejoin="round" d="M287.6 170a62 62 0 0 0-61.4-46.9 62.3 62.3 0 0 0-58.7 50.5l6.3 1.3a56 56 0 0 1 52.6-45.4 55.7 55.7 0 0 1 55 42.2z"/>
  </g>
</svg>
