<?xml version="1.0" encoding="UTF-8" standalone="no"?>
<!DOCTYPE svg PUBLIC "-//W3C//DTD SVG 1.1//EN" "http://www.w3.org/Graphics/SVG/1.1/DTD/svg11.dtd">
<svg width="456" height="456" viewBox="0 0 456 456" version="1.1" xmlns="http://www.w3.org/2000/svg" fill="none" stroke-linecap="square" stroke-miterlimit="10">
	<clipPath id="a">
		<path d="M0 0h456v456H0V0z"/>
	</clipPath>
	<g clip-path="url(#a)">
		<path d="M0 0h456v456H0z"/>
		<path fill="#666" fill-rule="evenodd" d="M80 83h24v160H80z"/>
		<path stroke="#fff" stroke-linecap="butt" stroke-linejoin="round" stroke-width="3" d="M80 83h24v160H80z"/>
		<path fill="#666" fill-rule="evenodd" d="M356 83h23v156h-23z"/>
		<path stroke="#fff" stroke-linecap="butt" stroke-linejoin="round" stroke-width="3" d="M356 83h23v156h-23z"/>
		<path fill="#fd0" fill-rule="evenodd" d="m200 135 30 28-1 2-38-16z"/>
		<path stroke="#fd0" stroke-linecap="butt" stroke-linejoin="round" d="m200 135 30 28-1 2-38-16z"/>
		<path fill="#fd0" fill-rule="evenodd" d="M205 188a58 58 0 0 1-60 16c-22-6-36-23-36-42 1-19 17-36 39-40 23-5 46 3 58 19l-15 7c-8-9-24-14-39-10-15 3-26 13-26 25-1 11 9 22 24 26 14 4 31 0 40-9z"/>
		<path stroke="#fd0" stroke-linecap="butt" stroke-linejoin="round" d="M205 188a58 58 0 0 1-60 16c-22-6-36-23-36-42 1-19 17-36 39-40 23-5 46 3 58 19l-15 7c-8-9-24-14-39-10-15 3-26 13-26 25-1 11 9 22 24 26 14 4 31 0 40-9z"/>
		<path fill="#fd0" fill-rule="evenodd" d="M255 188c13 16 37 22 59 16s37-23 36-42c0-19-16-36-39-40-22-5-45 3-57 19l14 7c9-9 25-14 40-10 15 3 26 13 26 25 0 11-9 22-24 26s-31 0-40-9z"/>
		<path stroke="#fd0" stroke-linecap="butt" stroke-linejoin="round" d="M255 188c13 16 37 22 59 16s37-23 36-42c0-19-16-36-39-40-22-5-45 3-57 19l14 7c9-9 25-14 40-10 15 3 26 13 26 25 0 11-9 22-24 26s-31 0-40-9z"/>
		<path fill="#fd0" fill-rule="evenodd" d="m198 193 37-33h-1l-45 20z"/>
		<path stroke="#fd0" stroke-linecap="butt" stroke-linejoin="round" d="m198 193 37-33h-1l-45 20z"/>
		<path fill="#fd0" fill-rule="evenodd" d="m260 135-30 28 1 2 38-16z"/>
		<path stroke="#fd0" stroke-linecap="butt" stroke-linejoin="round" d="m260 135-30 28 1 2 38-16z"/>
		<path fill="#fd0" fill-rule="evenodd" d="m262 193-37-33 46 20z"/>
		<path stroke="#fd0" stroke-linecap="butt" stroke-linejoin="round" d="m262 193-37-33 46 20z"/>
		<path d="M109 99c25-5 52-1 73 8 21 10 35 25 38 42l-89 7z"/>
		<path d="M109 99c25-5 52-1 73 8 21 10 35 25 38 42"/>
		<path stroke="#fff" stroke-linecap="butt" stroke-linejoin="round" stroke-width="3" d="M109 99c25-5 52-1 73 8 21 10 35 25 38 42"/>
		<path d="M109 228c25 5 52 1 73-8 22-10 35-25 38-42l-89-7z"/>
		<path d="M109 228c25 5 52 1 73-8 22-10 35-25 38-42"/>
		<path stroke="#fff" stroke-linecap="butt" stroke-linejoin="round" stroke-width="3" d="M109 228c25 5 52 1 73-8 22-10 35-25 38-42"/>
		<path d="M351 99c-25-5-52-1-73 8-22 10-36 25-38 42l89 7z"/>
		<path d="M351 99c-25-5-52-1-73 8-22 10-36 25-38 42"/>
		<path stroke="#fff" stroke-linecap="butt" stroke-linejoin="round" stroke-width="3" d="M351 99c-25-5-52-1-73 8-22 10-36 25-38 42"/>
		<path d="M351 228c-25 5-52 1-73-8-22-10-36-25-38-42l89-7z"/>
		<path d="M351 228c-25 5-52 1-73-8-22-10-36-25-38-42"/>
		<path stroke="#fff" stroke-linecap="butt" stroke-linejoin="round" stroke-width="3" d="M351 228c-25 5-52 1-73-8-22-10-36-25-38-42"/>
		<path d="M239 149c0 3-1 6-4 8s-7 2-10 0-5-5-5-8h10z"/>
		<path d="M239 149c0 3-1 6-4 8s-7 2-10 0-5-5-5-8"/>
		<path stroke="#fff" stroke-linecap="butt" stroke-linejoin="round" stroke-width="3" d="M239 149c0 3-1 6-4 8s-7 2-10 0-5-5-5-8"/>
		<path fill="#595959" fill-rule="evenodd" d="m104 94 5 4v130l-5 5z"/>
		<path stroke="#fff" stroke-linecap="butt" stroke-linejoin="round" stroke-width="3" d="m104 94 5 4v130l-5 5z"/>
		<path fill="#595959" fill-rule="evenodd" d="m356 94-5 4v130l5 5z"/>
		<path stroke="#fff" stroke-linecap="butt" stroke-linejoin="round" stroke-width="3" d="m356 94-5 4v130l5 5z"/>
		<path d="M239 178c0-3-1-6-4-8s-7-2-10 0-5 5-5 8h10z"/>
		<path d="M239 178c0-3-1-6-4-8s-7-2-10 0-5 5-5 8"/>
		<path stroke="#fff" stroke-linecap="butt" stroke-linejoin="round" stroke-width="3" d="M239 178c0-3-1-6-4-8s-7-2-10 0-5 5-5 8"/>
		<path fill="#fd0" fill-rule="evenodd" d="M279 132c-7 20-28 33-51 33-23-1-43-16-48-36l5-1c5 18 22 31 43 32 21 0 40-12 46-30z"/>
		<path stroke="#fd0" stroke-linecap="butt" stroke-linejoin="round" d="M279 132c-7 20-28 33-51 33-23-1-43-16-48-36l5-1c5 18 22 31 43 32 21 0 40-12 46-30z"/>
		<path fill="#fd0" fill-rule="evenodd" d="M279 195c-7-20-28-34-51-33-23 0-43 15-48 36l5 1c5-19 22-32 43-33 21 0 40 12 46 30z"/>
		<path stroke="#fd0" stroke-linecap="butt" stroke-linejoin="round" d="M279 195c-7-20-28-34-51-33-23 0-43 15-48 36l5 1c5-19 22-32 43-33 21 0 40 12 46 30z"/>
		<path d="M-109 248h678v137h-678z"/>
		<path fill="#fff" d="m34 328-3-1-1-3v-50l1-2 3-1 3 1 1 2v50l-1 3-3 1zm52 0-3-1-1-2v-19l-1-6-4-4-6-2q-4 0-6 2l-4 3q-2 2-2 5h-4q0-5 2-9 2-3 6-5 4-3 9-3t9 3q4 2 6 6 3 4 3 10v19l-1 2-3 1zm-30 0-3-1-1-2v-33l1-3 3-1 2 1 1 3v33l-1 2-2 1zm51 0-3-1-1-2v-37l2-10q2-4 7-6t12-2l6 1 5 2 1 3q0 4-4 4l-3-1-2-2-3-1-3-1-5 1-4 4-1 8v37l-1 2-3 1zm-7-32-3-1-1-2 1-3 3-1h18l3 1 1 3-1 2-3 1h-18zm31 32-2-1-1-2v-33l1-3 2-1 3 1 1 3v33l-1 2-3 1zm52 0-2-1-2-2v-19l-1-6-4-4-6-2-6 2-4 3-1 5h-5q0-5 2-9 2-3 6-5 4-3 9-3t9 3q4 2 7 6 2 4 2 10v19l-1 2-3 1zm-30 0-3-1-1-2v-33l1-3 3-1 3 1 1 3v33l-1 2-3 1zm51 0-3-1-1-2v-33l1-3 3-1 3 1 1 3v33l-1 2-3 1zm0-47-3-1-2-4q0-2 2-3 1-2 3-2t3 2q2 1 2 3l-2 4-3 1zm36 47-3-1-1-3v-53h8v53q0 2-2 3l-2 1zm-20-50-3-1-1-3 1-2 3-1h39l3 1 1 2-1 3-3 1h-39zm55 50-3-1-1-2v-33l1-3 3-1 2 1 1 3v33l-1 2-2 1zm0-47-4-1-1-4 1-3 4-2q2 0 3 2l1 3-1 4-3 1zm71 47-3-1-1-2v-22q0-4-3-6-2-3-6-3-3 0-6 3-2 3-2 7h-7q0-5 3-9l5-5q4-3 9-3 4 0 7 2 4 2 5 6 2 3 2 8v22l-1 2-2 1zm-50 0-3-1-1-2v-33l1-3 3-1 3 1 1 3v33l-1 2-3 1zm25 0-3-1-1-2v-22q0-4-2-6-3-3-6-3-4 0-7 3-2 3-2 7h-5q0-5 2-9 2-3 6-5 3-3 7-3l8 2q3 2 5 6 2 3 2 8v22l-1 2-3 1zm60 1q-6 0-11-3t-8-7q-2-5-2-11t2-11l7-7q5-2 11-2l10 2q4 3 6 7l2 10-1 3-2 1h-30v-6h29l-3 2-1-7q-1-3-4-4l-6-2q-5 0-8 2t-4 5q-2 3-2 7t2 7q2 4 5 5l8 2 4-1q3 0 4-2h5l1 3-1 2-6 3-7 2zm30-26q0-4 3-8l5-6q4-2 9-2 4 0 6 2 2 1 2 3l-1 2-1 1h-2l-9-1-6 3-2 6h-4zm0 25-2-1-1-2v-33l1-3 2-1 3 1 1 3v33l-1 2-3 1z"/>
	</g>
</svg>